<?xml version="1.0" encoding="utf-8"?>
<!-- Generator: Adobe Illustrator 22.0.1, SVG Export Plug-In . SVG Version: 6.00 Build 0)  -->
<svg version="1.1" id="Layer_1" xmlns="http://www.w3.org/2000/svg" xmlns:xlink="http://www.w3.org/1999/xlink" x="0px" y="0px"
	 viewBox="0 0 1272.8 284.1" style="enable-background:new 0 0 1272.8 284.1;" xml:space="preserve">
<style type="text/css">
	.st0{fill:#FFFFFF;}
</style>
<g>
	<path class="st0" d="M150.8,42.2c18.6,0,33,5.6,43.2,16.7c4,4.3,7.2,9.4,9.6,15.2c2.4,5.8,3.6,12.5,3.6,19.9
		c0,7.6-1.5,14.5-4.6,20.7c-3,6.2-7.4,11.2-13.1,15c6.6,3.5,11.5,8.7,14.7,15.6c3.2,6.9,4.8,14.5,4.8,22.7c0,6.2-1.1,12.2-3.3,17.7
		c-2.2,5.6-5.2,10.6-9,15.1c-4.5,5.4-10.3,9.6-17.3,12.8c-7,3.1-15.8,4.7-26.2,4.7H25c-7.8,0-11.7-3.7-11.7-11.2V53.1
		c0-7.3,3.9-10.9,11.7-10.9H150.8z M142.4,114.3c3.3,0,5.9-0.5,7.9-1.4c2-1,3.7-2.3,5.1-4c2.1-2.6,3.1-5.5,3.1-8.6s-1-6-3.1-8.6
		c-1.4-1.6-3.1-2.8-5.1-3.8c-2-1-4.6-1.4-7.9-1.4H64.1c-2.4,0-3.6,1.3-3.6,3.9v24L142.4,114.3L142.4,114.3z M60.4,171.6
		c0,2.6,1.2,3.9,3.6,3.9h78.1c3.5,0,6.3-0.5,8.5-1.4c2.2-1,3.9-2.2,5.3-3.8c2.4-2.9,3.6-6.2,3.6-9.9c0-3.5-1.3-6.7-3.9-9.6
		c-1.4-1.6-3.1-2.8-5.2-3.6c-2.1-0.9-4.9-1.3-8.3-1.3H60.4V171.6z"/>
	<path class="st0" d="M275,42.2v176h-47.4v-176H275z"/>
	<path class="st0" d="M519.8,184.1c0,6.6-0.9,12.3-2.7,17.1c-1.8,4.8-4.3,8.7-7.3,11.7c-3,3-6.6,5.3-10.5,6.8
		c-4,1.5-8.2,2.2-12.5,2.2c-7.5,0-14-1.1-19.7-3.3c-5.6-2.2-10.5-5.7-14.7-10.5L355.7,96.3c-1.4-1.6-2.8-2.3-4.2-2.3
		c-1.2,0-2.3,0.4-3.1,1.3c-0.9,0.9-1.3,2.1-1.3,3.6v119.3h-46.4V79.4c0-7.5,1-13.8,3-19c2-5.2,4.8-9.5,8.5-12.8
		c3.6-3.3,8-5.7,13-7.2c5-1.5,10.5-2.2,16.4-2.2c8.3,0,15.4,1.3,21.1,3.9c5.7,2.6,11.4,7.1,16.9,13.5l85.9,102.9
		c0.7,0.9,1.4,1.4,2.1,1.7c0.7,0.3,1.5,0.4,2.3,0.4c2.4,0,3.6-1.6,3.6-4.7V42.2h46.1L519.8,184.1L519.8,184.1z"/>
	<path class="st0" d="M759.8,210.4c0.7,1.4,1.3,2.7,1.7,3.9c0.4,1.2,0.8,2.5,1.2,3.9h-53.1c-0.3-1.2-0.7-2.3-1-3.3
		c-0.3-1-0.7-1.9-1-2.7l-9.4-21.4H594l-9.1,21.1c-0.3,1-0.7,2.1-1,3.1c-0.3,1-0.6,2.1-0.8,3.1h-54.4c0.3-1.4,0.7-2.7,1.2-3.9
		c0.4-1.2,1-2.5,1.7-3.9l63-139.6c5-10.9,11.6-19.1,19.8-24.5c8.2-5.4,18.6-8.1,31.2-8.1c12.3,0,22.6,2.7,30.9,8.1
		c8.2,5.4,14.9,13.5,19.9,24.5L759.8,210.4z M680.9,152.1l-27.1-63c-0.9-1.9-2-3.3-3.4-4.2c-1.4-0.9-3-1.3-4.7-1.3
		c-1.6,0-3,0.4-4.4,1.2c-1.4,0.8-2.5,2.2-3.4,4.3l-26.8,63L680.9,152.1L680.9,152.1z"/>
	<path class="st0" d="M828.3,218.2h-47.1V53.1c0-7.3,3.9-10.9,11.7-10.9h125c10.9,0,20,1.5,27.1,4.6c7.1,3,13.1,7.1,18,12.1
		c4.3,4.5,7.8,9.8,10.3,15.8c2.5,6,3.8,12.3,3.8,18.9c0,7.1-1.2,13.8-3.6,20.2c-2.4,6.3-6.8,11.8-13,16.3
		c5.9,3.5,10.2,7.9,12.9,13.3c2.7,5.4,4,13.1,4,23.2v35.2c0,3.8,0,6.9,0.1,9.4c0.1,2.4,0.3,4.9,0.7,7.3h-47.7
		c-0.5-3.8-0.8-7.7-0.8-11.7v-35.2c0-5.6-1.5-9.5-4.4-12c-3-2.4-7.9-3.6-14.8-3.6h-82V218.2z M911.7,115.6c3.3,0,6-0.5,8.1-1.6
		c2.1-1,3.8-2.4,5.2-4.2c2.3-2.8,3.4-5.8,3.4-9.1c0-4-1.3-7.3-3.9-9.9c-2.8-3.1-7-4.7-12.8-4.7h-79.4c-2.6,0-3.9,1.3-3.9,3.9v25.5
		C828.3,115.6,911.7,115.6,911.7,115.6z"/>
	<path class="st0" d="M1048.1,42.2v176h-47.4v-176H1048.1z"/>
	<path class="st0" d="M1258.5,88.8H1132c-3,0-5.3,0.3-6.9,0.9c-1.7,0.6-3,1.4-4,2.5c-2.4,2.4-3.6,5.5-3.6,9.1c0,3.8,1.5,6.9,4.4,9.4
		c1,0.9,2.3,1.5,3.8,2c1.5,0.4,3.6,0.7,6.4,0.7h77.3c9.9,0,18.3,1.4,25.1,4.3c6.9,2.9,12.6,6.7,17.3,11.6
		c4.7,4.9,8.4,10.4,11.1,16.7c2.7,6.2,4,12.8,4,19.8c0,6.4-1.2,12.6-3.5,18.5c-2.3,5.9-5.5,11.2-9.5,15.9
		c-4.9,5.6-10.9,10-18.1,13.3c-7.2,3.3-16,4.9-26.4,4.9h-136.4v-45H1201c3.6,0,6.5-0.4,8.5-1.2c2-0.8,3.6-1.9,4.8-3.3
		c1.9-2.3,2.9-4.9,2.9-8.1c0-3.8-1.2-6.9-3.6-9.4c-1.2-1.4-2.7-2.4-4.6-3c-1.8-0.6-4.5-0.9-7.9-0.9h-71.6c-11.8,0-21.3-1.4-28.5-4.3
		c-7.2-2.9-13.1-6.7-17.8-11.6c-4.7-4.9-8.3-10.4-10.9-16.5c-2.6-6.2-3.9-12.9-3.9-20.2c0-7.1,1.3-13.8,4-20.1
		c2.7-6.2,6.4-11.8,11.1-16.7c4.7-4.9,10.6-8.7,17.7-11.6c7.1-2.9,16.6-4.3,28.4-4.3h129.2L1258.5,88.8L1258.5,88.8z"/>
</g>
</svg>
